<svg width="443" height="143" viewBox="0 0 443 143" fill="none" xmlns="http://www.w3.org/2000/svg">
<path d="M34.1152 95.4274C33.2394 95.7198 32.2868 95.9801 31.3656 96.0764C23.9787 96.8573 17.4642 95.0851 11.1101 91.2841C10.9915 91.2127 10.8985 91.2377 10.831 91.3589C9.6551 93.4449 7.35564 94.4861 5.12597 94.2258C1.22491 93.7694 -1.07105 89.5547 0.499139 85.9462C2.666 80.9578 9.68999 81.2965 11.3404 86.5025C11.38 86.6261 11.4626 86.6712 11.5882 86.638C21.2838 83.9565 31.0318 81.8326 40.8321 80.266C42.0045 80.0771 42.985 79.7954 42.999 78.5046C43.0037 78.1409 42.8943 77.7558 42.671 77.3493C38.2489 69.2742 35.9413 60.5822 35.7482 51.2733C35.6924 48.6585 35.6191 46.3016 35.5284 44.2026C35.3016 38.9146 33.6023 27.0658 26.2991 27.2156C23.6507 27.269 20.7581 28.4279 20.4406 31.4373C20.3196 32.6045 20.4127 33.8608 20.7197 35.2063C21.2478 37.5359 21.7084 39.7537 22.1015 41.8599C22.8691 45.9842 22.6598 49.8411 21.4734 53.4306C20.7581 55.5878 18.3051 57.9234 16.2325 59.3354C16.1936 59.3622 16.1655 59.402 16.1532 59.4473C16.141 59.4926 16.1456 59.5403 16.1662 59.5814C18.9053 65.0904 12.1395 70.496 7.53011 66.5381C5.20971 64.5449 4.791 61.0505 6.71012 58.5688C8.52805 56.2154 11.5009 55.7626 14.0691 57.1781C14.0941 57.1923 14.1219 57.2007 14.1504 57.2029C14.1789 57.2051 14.2076 57.201 14.2344 57.1909C14.2612 57.1807 14.2856 57.1648 14.3058 57.1441C14.3261 57.1234 14.3417 57.0986 14.3517 57.0712C14.9344 55.488 14.9414 53.7872 14.6274 52.1327C13.6957 47.2191 11.8708 42.7941 9.88539 38.3156C7.62781 33.2131 6.35072 27.4723 7.04509 22.0025C7.85694 15.5985 10.6472 10.3688 15.416 6.31342C20.9872 1.57341 27.3483 -0.493504 34.499 0.112665C45.6893 1.06471 53.8159 8.42431 58.3764 18.747C58.4625 18.9419 58.5486 18.9419 58.6346 18.747C61.6773 11.7761 66.6356 5.66446 73.4014 2.54804C78.2376 0.323042 83.225 -0.444772 88.3636 0.244597C93.3905 0.917325 97.9801 3.09359 102.132 6.77339C108.001 11.9793 110.768 19.7347 110.018 27.6541C109.707 30.9655 108.831 34.297 107.391 37.6488C105.664 41.6673 103.971 45.5076 102.83 50.0146C102.202 52.4857 101.822 54.7249 102.645 57.0783C102.697 57.2257 102.79 57.2625 102.924 57.1888C104.778 56.1548 106.605 56.0847 108.403 56.9785C111.372 58.4511 112.412 62.4269 110.608 65.2402C108.096 69.1553 102.492 68.5741 100.709 64.3737C100.046 62.8167 100.077 61.23 100.803 59.6135C100.827 59.5586 100.832 59.4969 100.816 59.4394C100.8 59.3819 100.764 59.3324 100.716 59.2997C98.0569 57.4705 95.8307 55.1279 95.0666 51.8795C93.7406 46.2421 94.9165 40.9827 96.2529 35.3881C96.5135 34.2899 96.6309 33.118 96.6053 31.8724C96.5216 28.1498 92.5124 26.8447 89.5639 27.294C82.9272 28.2995 81.5141 40.3516 81.4129 45.5183C81.3617 48.1807 81.2861 50.6137 81.1861 52.8173C80.786 61.6317 78.5016 69.8007 74.333 77.3243C73.6212 78.6116 74.0016 79.8738 75.5299 80.1341C85.8408 81.8884 95.2061 83.821 105.364 86.6308C105.505 86.6689 105.601 86.6189 105.65 86.4811C106.798 83.2791 109.907 81.6317 113.096 82.7192C117.185 84.1134 118.326 89.5404 115.249 92.5784C112.59 95.2028 108.103 94.7285 106.17 91.3803C106.079 91.2234 105.958 91.1925 105.807 91.2876C99.812 95.1029 93.2893 96.7218 86.2386 96.1441C85.136 96.0538 84.0333 95.8232 82.9307 95.4524C82.6353 95.3525 82.6109 95.4001 82.8574 95.595C85.9839 98.0862 88.288 101.453 89.7698 105.697C91.2236 109.864 92.2111 113.767 92.7322 117.406C92.7508 117.537 92.8252 117.601 92.9555 117.599C95.4353 117.544 97.2613 118.507 98.4337 120.487C100.06 123.243 99.2502 126.93 96.5076 128.613C94.6164 129.772 92.1216 129.819 90.3385 128.556C87.903 126.835 87.126 124.427 88.0077 121.332C88.0449 121.201 88.0007 121.11 87.8751 121.058C83.4181 119.218 79.353 116.983 75.6799 114.354C73.0629 112.481 70.9391 110.32 69.3084 107.872C69.2131 107.727 69.1642 107.742 69.1619 107.918C69.1409 112.882 67.9278 118.099 65.5225 123.571C64.1245 126.745 62.7718 129.453 61.4645 131.694C61.3947 131.813 61.4168 131.91 61.5307 131.987C63.3033 133.166 64.2268 134.796 64.3013 136.879C64.4164 140.095 61.9704 142.862 58.8405 142.994C52.7447 143.251 50.3859 135.395 55.4628 131.983C55.5071 131.954 55.5387 131.908 55.551 131.856C55.5633 131.803 55.5555 131.748 55.5291 131.701C51.5548 124.72 48.3272 117.214 47.8491 109.12C47.8282 108.745 47.8771 108.346 47.8736 107.968C47.8712 107.735 47.8061 107.715 47.6782 107.907C46.208 110.099 44.3366 112.061 42.0639 113.794C38.5397 116.483 34.2199 118.91 29.1045 121.075C28.9789 121.128 28.9371 121.22 28.9789 121.354C29.7629 123.833 29.3372 125.944 27.7018 127.686C25.6885 129.829 22.419 130.125 20.0637 128.307C17.2164 126.11 16.9652 122.052 19.3484 119.435C20.5162 118.156 22.0747 117.547 24.0241 117.606C24.1567 117.611 24.2335 117.547 24.2544 117.414C24.9453 112.994 26.0421 108.801 27.5448 104.834C28.9405 101.156 31.1504 98.0565 34.1745 95.5344C34.3443 95.3918 34.3246 95.3561 34.1152 95.4274ZM54.4858 17.228C50.4068 9.19094 42.8908 3.52147 33.7977 2.92957C27.3331 2.51119 21.6339 4.52224 16.7 8.96273C8.76532 16.1013 8.02908 27.023 12.2128 36.5862C13.0432 38.4855 13.8911 40.5049 14.7565 42.6443C16.2569 46.3527 17.2432 50.1145 17.7154 53.9298C17.7387 54.1223 17.8085 54.1425 17.9248 53.9904C20.0219 51.2662 20.0044 46.1958 19.4008 42.737C19.0262 40.5691 18.5691 38.3144 18.0295 35.9729C17.6154 34.1663 17.5142 32.488 17.7259 30.9381C18.5389 25.0226 26.006 22.8226 30.5526 25.3364C37.4056 29.1232 38.4629 40.9899 38.4768 48.0571C38.4768 48.2282 38.5269 48.2449 38.6269 48.107C43.6306 41.3215 52.8982 42.6764 58.2473 48.3958C58.4171 48.5765 58.502 48.542 58.502 48.2924L58.495 26.695C58.4951 26.3676 58.4334 26.0443 58.3136 25.7429C57.1296 22.7596 55.8536 19.9213 54.4858 17.228ZM58.4357 53.9298C56.5724 49.8031 53.5542 47.3558 49.381 46.588C44.5587 45.7037 40.211 48.3245 39.6772 53.5162C39.391 56.2784 39.6027 59.4958 40.3122 63.1685C41.1404 67.4616 42.6454 71.6561 44.8274 75.7519C47.3467 80.4764 51.0977 85.447 56.1746 86.6879C64.4059 88.7025 70.2401 80.0129 73.3072 73.4948C75.7544 68.3007 77.1291 62.8417 77.4316 57.1175C77.5665 54.612 77.3478 52.6247 76.7756 51.1557C74.8634 46.2635 69.1375 45.4398 64.8002 47.4295C61.9576 48.7369 59.8838 50.9037 58.5788 53.9298C58.5732 53.9439 58.5637 53.9558 58.5513 53.9642C58.539 53.9726 58.5244 53.977 58.5093 53.977C58.4942 53.977 58.4792 53.9726 58.4662 53.9642C58.4531 53.9558 58.4425 53.9439 58.4357 53.9298ZM13.9504 62.1059C13.9504 61.3437 13.6541 60.6127 13.1267 60.0737C12.5993 59.5348 11.8839 59.232 11.1381 59.232C10.3922 59.232 9.67682 59.5348 9.1494 60.0737C8.62197 60.6127 8.32567 61.3437 8.32567 62.1059C8.32567 62.8682 8.62197 63.5992 9.1494 64.1381C9.67682 64.6771 10.3922 64.9799 11.1381 64.9799C11.8839 64.9799 12.5993 64.6771 13.1267 64.1381C13.6541 63.5992 13.9504 62.8682 13.9504 62.1059ZM108.675 62.1059C108.675 61.3428 108.378 60.6109 107.85 60.0712C107.322 59.5316 106.606 59.2284 105.859 59.2284C105.112 59.2284 104.396 59.5316 103.868 60.0712C103.34 60.6109 103.043 61.3428 103.043 62.1059C103.043 62.8691 103.34 63.601 103.868 64.1407C104.396 64.6803 105.112 64.9835 105.859 64.9835C106.606 64.9835 107.322 64.6803 107.85 64.1407C108.378 63.601 108.675 62.8691 108.675 62.1059ZM8.66762 88.3281C8.66762 87.5564 8.36764 86.8164 7.83368 86.2707C7.29971 85.725 6.57549 85.4185 5.82034 85.4185C5.0652 85.4185 4.34098 85.725 3.80701 86.2707C3.27304 86.8164 2.97306 87.5564 2.97306 88.3281C2.97306 89.0998 3.27304 89.8398 3.80701 90.3855C4.34098 90.9312 5.0652 91.2377 5.82034 91.2377C6.57549 91.2377 7.29971 90.9312 7.83368 90.3855C8.36764 89.8398 8.66762 89.0998 8.66762 88.3281ZM114.034 88.3281C114.034 87.5574 113.735 86.8182 113.202 86.2732C112.668 85.7282 111.945 85.422 111.191 85.422C110.436 85.422 109.713 85.7282 109.18 86.2732C108.647 86.8182 108.347 87.5574 108.347 88.3281C108.347 89.0988 108.647 89.838 109.18 90.383C109.713 90.928 110.436 91.2341 111.191 91.2341C111.945 91.2341 112.668 90.928 113.202 90.383C113.735 89.838 114.034 89.0988 114.034 88.3281ZM75.2089 110.143C79.3367 113.744 84.5183 116.365 89.7488 118.637C89.7733 118.647 89.8001 118.65 89.8264 118.647C89.8527 118.643 89.8776 118.633 89.8985 118.616C89.9195 118.599 89.9357 118.577 89.9456 118.552C89.9554 118.527 89.9586 118.499 89.9547 118.473C89.201 113.645 88.0286 108.699 85.9629 104.263C84.6882 101.53 82.8795 99.2998 80.537 97.574C76.0056 94.2341 71.3997 90.8538 66.7194 87.4331C66.5565 87.3142 66.3914 87.3095 66.2239 87.4188L65.0619 88.1819C65.0099 88.2155 64.9702 88.2657 64.9493 88.3246C64.9285 88.3834 64.9276 88.4474 64.9468 88.5064C66.667 93.9369 68.4501 99.2498 70.7984 104.367C71.8452 106.652 73.3735 108.542 75.2089 110.143ZM46.6942 103.347C48.7622 98.3929 50.5464 93.4389 52.0468 88.485C52.0863 88.3495 52.048 88.2449 51.9316 88.1712L50.7034 87.3939C50.5638 87.3059 50.4278 87.3107 50.2952 87.4081C46.0266 90.5745 41.8091 93.666 37.6429 96.6825C34.2164 99.1607 32.06 101.625 30.5003 105.451C28.951 109.252 27.8065 113.58 27.0668 118.437C27.0626 118.464 27.0655 118.492 27.0751 118.517C27.0847 118.543 27.1007 118.566 27.1216 118.583C27.1424 118.6 27.1673 118.612 27.1938 118.616C27.2203 118.62 27.2475 118.618 27.2727 118.608C31.9693 116.716 36.2588 114.352 40.1413 111.516C43.1607 109.307 45.345 106.584 46.6942 103.347ZM26.3829 123.55C26.3829 122.78 26.0836 122.042 25.551 121.498C25.0183 120.953 24.2959 120.648 23.5426 120.648C22.7893 120.648 22.0668 120.953 21.5342 121.498C21.0015 122.042 20.7023 122.78 20.7023 123.55C20.7023 124.32 21.0015 125.058 21.5342 125.602C22.0668 126.147 22.7893 126.453 23.5426 126.453C24.2959 126.453 25.0183 126.147 25.551 125.602C26.0836 125.058 26.3829 124.32 26.3829 123.55ZM96.3088 123.554C96.3088 122.783 96.0091 122.044 95.4758 121.499C94.9425 120.954 94.2192 120.648 93.465 120.648C92.7107 120.648 91.9874 120.954 91.4541 121.499C90.9208 122.044 90.6212 122.783 90.6212 123.554C90.6212 124.324 90.9208 125.064 91.4541 125.609C91.9874 126.154 92.7107 126.46 93.465 126.46C94.2192 126.46 94.9425 126.154 95.4758 125.609C96.0091 125.064 96.3088 124.324 96.3088 123.554ZM61.3458 137.071C61.3458 136.3 61.0462 135.561 60.5129 135.016C59.9796 134.471 59.2562 134.165 58.502 134.165C57.7478 134.165 57.0245 134.471 56.4912 135.016C55.9579 135.561 55.6582 136.3 55.6582 137.071C55.6582 137.842 55.9579 138.581 56.4912 139.126C57.0245 139.671 57.7478 139.977 58.502 139.977C59.2562 139.977 59.9796 139.671 60.5129 139.126C61.0462 138.581 61.3458 137.842 61.3458 137.071Z" fill="#F0F0F0"/>
<path d="M157.2 94.5H147.472V93.508L150.48 91.172L148.016 85.252H137.264L134.64 91.3L140.272 93.22L139.632 94.5H129.904V93.508L132.912 91.14L141.968 70.372L145.296 68.74L154.64 91.268L157.84 93.22L157.2 94.5ZM142.768 72.58L137.904 83.812H147.44L142.768 72.58ZM171.156 77.22C171.86 77.22 172.478 77.412 173.012 77.796C173.545 78.18 173.961 78.7133 174.26 79.396L172.148 82.052H170.932C170.846 81.5187 170.686 81.1453 170.452 80.932C170.238 80.6973 169.94 80.58 169.556 80.58C169.086 80.58 168.585 80.708 168.052 80.964C167.54 81.1987 166.953 81.6573 166.292 82.34V91.876L170.772 93.252L170.132 94.532H159.604V93.54L162.452 91.3V82.244L159.604 80.58V79.588L165.076 76.9L166.068 80.836L169.396 77.444C169.844 77.2733 170.43 77.188 171.156 77.188V77.22ZM184.486 94.5H175.558V93.508L178.406 91.268V71.588L175.558 69.604V68.612L181.03 66.564H182.246V92.1L185.126 93.22L184.486 94.5ZM198.922 94.564C198.069 94.7347 197.045 94.82 195.85 94.82C194.442 94.82 193.173 94.4573 192.042 93.732C190.933 92.9853 190.058 91.9827 189.418 90.724C188.799 89.4653 188.49 88.0787 188.49 86.564C188.49 84.9213 188.991 83.3853 189.994 81.956C190.997 80.5053 192.245 79.3533 193.738 78.5C195.253 77.6253 196.714 77.188 198.122 77.188C200.149 77.188 201.717 77.988 202.826 79.588C203.957 81.188 204.522 83.3 204.522 85.924H192.682C192.81 87.7373 193.301 89.22 194.154 90.372C195.029 91.524 196.213 92.1 197.706 92.1C199.093 92.1 201.066 91.0227 203.626 88.868L204.586 90.084L198.922 94.564ZM196.266 79.876C193.962 79.876 192.757 81.4547 192.65 84.612H200.138C199.946 83.46 199.743 82.5853 199.53 81.988C199.338 81.3693 198.986 80.868 198.474 80.484C197.983 80.0787 197.247 79.876 196.266 79.876ZM227.933 102.66H217.405V101.668L221.853 99.3V92.228L218.877 94.596C218.194 94.7667 217.373 94.852 216.413 94.852C215.005 94.852 213.735 94.4893 212.605 93.764C211.495 93.0173 210.621 92.0147 209.981 90.756C209.362 89.4973 209.053 88.1107 209.053 86.596C209.053 84.9533 209.554 83.4173 210.557 81.988C211.559 80.5373 212.807 79.3853 214.301 78.532C215.815 77.6573 217.277 77.22 218.685 77.22C220.327 77.22 221.725 77.8493 222.877 79.108L224.477 76.868H225.693V100.228L228.573 101.38L227.933 102.66ZM218.045 92.132C218.685 92.132 219.293 92.0467 219.869 91.876C220.466 91.684 221.127 91.332 221.853 90.82V83.524C221.725 82.4573 221.223 81.5933 220.349 80.932C219.495 80.2493 218.322 79.908 216.829 79.908C214.418 79.908 213.213 81.6253 213.213 85.06C213.213 87.0653 213.629 88.7507 214.461 90.116C215.293 91.46 216.487 92.132 218.045 92.132ZM249.983 94.5H243.903V91.172L239.839 94.564C239.391 94.7347 238.804 94.82 238.079 94.82C236.628 94.82 235.476 94.3827 234.623 93.508C233.77 92.612 233.343 91.4067 233.343 89.892V82.244L230.495 80.58V79.588L235.967 76.9H237.183V88.292C237.183 89.4653 237.364 90.2867 237.727 90.756C238.09 91.2253 238.74 91.46 239.679 91.46C240.34 91.46 240.991 91.3427 241.631 91.108C242.271 90.852 243.028 90.3613 243.903 89.636V82.244L241.055 80.58V79.588L246.527 76.9H247.743V92.1L250.623 93.22L249.983 94.5ZM262.438 94.5H253.51V93.508L256.358 91.268V81.924L253.51 79.94V78.948L258.982 76.9H260.198V92.1L263.078 93.22L262.438 94.5ZM264.23 67.332L257.19 72.868L255.91 72.228L259.334 65.956L263.622 66.564L264.23 67.332ZM285.756 94.532H279.676V83.748C279.676 82.5747 279.494 81.7533 279.132 81.284C278.769 80.8147 278.118 80.58 277.18 80.58C276.476 80.58 275.772 80.708 275.068 80.964C274.385 81.22 273.574 81.7107 272.635 82.436V92.132L275.516 93.252L274.876 94.532H265.948V93.54L268.796 91.3V82.244L265.948 80.58V79.588L271.42 76.9L272.476 81.06L277.02 77.444C277.468 77.2733 278.054 77.188 278.78 77.188C280.23 77.188 281.382 77.636 282.236 78.532C283.089 79.4067 283.516 80.6013 283.516 82.116V92.1L286.396 93.252L285.756 94.532ZM311.165 69.06C313.362 69.06 315.304 69.5933 316.989 70.66C318.696 71.7053 320.008 73.1667 320.925 75.044C321.864 76.9213 322.333 79.044 322.333 81.412C322.333 83.844 321.618 86.0947 320.189 88.164C318.781 90.212 317.021 91.844 314.909 93.06C312.818 94.2547 310.813 94.852 308.893 94.852C307.912 94.852 306.92 94.7987 305.917 94.692C304.274 94.5853 303.005 94.532 302.109 94.532H298.045V93.54L301.053 91.172V71.716L297.725 70.628L298.365 69.348H302.077C304.104 69.348 306.077 69.284 307.997 69.156C309.448 69.0707 310.504 69.028 311.165 69.028V69.06ZM309.789 92.484C311.325 92.484 312.722 92.0787 313.981 91.268C315.24 90.436 316.221 89.2947 316.925 87.844C317.65 86.372 318.013 84.7293 318.013 82.916C318.013 80.74 317.672 78.7667 316.989 76.996C316.306 75.204 315.261 73.7747 313.853 72.708C312.466 71.6413 310.738 71.108 308.669 71.108C307.368 71.108 306.162 71.492 305.053 72.26V91.684C306.354 92.2173 307.933 92.484 309.789 92.484ZM337.235 94.564C336.381 94.7347 335.357 94.82 334.163 94.82C332.755 94.82 331.485 94.4573 330.355 93.732C329.245 92.9853 328.371 91.9827 327.731 90.724C327.112 89.4653 326.803 88.0787 326.803 86.564C326.803 84.9213 327.304 83.3853 328.307 81.956C329.309 80.5053 330.557 79.3533 332.051 78.5C333.565 77.6253 335.027 77.188 336.435 77.188C338.461 77.188 340.029 77.988 341.139 79.588C342.269 81.188 342.835 83.3 342.835 85.924H330.995C331.123 87.7373 331.613 89.22 332.467 90.372C333.341 91.524 334.525 92.1 336.019 92.1C337.405 92.1 339.379 91.0227 341.939 88.868L342.899 90.084L337.235 94.564ZM334.579 79.876C332.275 79.876 331.069 81.4547 330.963 84.612H338.451C338.259 83.46 338.056 82.5853 337.843 81.988C337.651 81.3693 337.299 80.868 336.787 80.484C336.296 80.0787 335.56 79.876 334.579 79.876ZM363.781 78.5L355.685 94.5H353.253L348.261 82.308L345.285 80.58V79.588L350.757 76.9L351.973 81.732L355.877 91.268L360.389 81.892L356.133 78.788L356.773 77.508H363.781V78.5Z" fill="#F0F0F0"/>
</svg>
